# xmcd
#
# Track frame offsets:
#	150
#	16420
#	35858
#	47495
#	62142
#	80388
#	92193
#	106325
#	123124
#	133975
#
# Disc length: 1954 seconds
#
# Revision: 1
# Processed by: cddbd v1.5.2PL0 Copyright (c) Steve Scherf et al.
# Submitted via: audiograbber 1.83.01
#
DISCID=8407a00a
DTITLE=Amy Winehouse - Back to Black
DYEAR=1900
DGENRE=
TTITLE0=Rehab
TTITLE1=You Know I'm No Good
TTITLE2=Me and Mr. Jones
TTITLE3=Just Friends
TTITLE4=Back To Black
TTITLE5=Love is a loosing game
TTITLE6=Tears Dry on their own
TTITLE7=Wake up Alone
TTITLE8=Some unholy war
TTITLE9=He can only hold her
EXTD=
EXTT0=
EXTT1=
EXTT2=
EXTT3=
EXTT4=
EXTT5=
EXTT6=
EXTT7=
EXTT8=
EXTT9=
PLAYORDER=
